<?xml version="1.0" standalone="no"?>
<!DOCTYPE svg PUBLIC "-//W3C//DTD SVG 20010904//EN"
 "http://www.w3.org/TR/2001/REC-SVG-20010904/DTD/svg10.dtd">
<svg version="1.0" xmlns="http://www.w3.org/2000/svg"
 width="900.000000pt" height="935.000000pt" viewBox="0 0 900.000000 935.000000"
 preserveAspectRatio="xMidYMid meet" style="background-color:white">
<metadata>
Created by potrace 1.16, written by Peter Selinger 2001-2019
</metadata>
<g transform="translate(0.000000,935.000000) scale(0.100000,-0.100000)"
fill="#009bb2" stroke="none">
<path d="M190 6398 l1 -2763 72 -44 c576 -352 1135 -547 1832 -637 214 -28
662 -26 885 4 457 62 883 180 1460 407 441 173 731 314 1090 528 388 232 977
670 1319 982 491 447 656 637 1305 1499 149 198 296 392 326 431 30 39 68 89
85 111 16 21 78 98 137 171 l108 131 0 971 0 971 -4310 0 -4310 0 0 -2762z"/>
<path d="M8764 6382 c-129 -178 -488 -630 -644 -807 -19 -22 -60 -70 -90 -105
-108 -127 -257 -287 -405 -435 -262 -262 -577 -565 -665 -640 -118 -100 -353
-275 -512 -382 -298 -201 -918 -578 -1183 -720 -580 -310 -1227 -516 -1907
-607 -331 -45 -442 -51 -873 -51 -447 0 -516 6 -800 70 -452 101 -981 325
-1433 606 l-62 39 0 -560 0 -560 4310 0 4310 0 0 2105 c0 1158 -1 2105 -2
2105 -2 0 -22 -26 -44 -58z"/>
<path d="M190 1025 l0 -865 4310 0 4310 0 0 865 0 865 -4310 0 -4310 0 0 -865z
m946 495 c65 -22 151 -84 190 -136 32 -42 30 -49 -38 -107 l-46 -39 -44 43
c-166 162 -369 65 -410 -196 -20 -131 12 -269 82 -349 91 -103 232 -102 335 4
l38 39 53 -47 c30 -26 54 -53 54 -60 0 -28 -104 -123 -169 -155 -62 -30 -72
-32 -171 -32 -131 0 -175 19 -270 114 -106 106 -152 230 -153 406 0 119 21
214 65 298 37 69 104 147 153 177 98 61 228 77 331 40z m1684 -90 l0 -90 -85
0 -85 0 0 -335 0 -335 85 0 85 0 0 -90 0 -90 -257 2 -258 3 -3 88 -3 87 86 0
85 0 0 335 0 335 -85 0 -85 0 0 90 0 90 260 0 260 0 0 -90z m1494 60 c68 -35
133 -101 164 -168 21 -47 26 -73 26 -142 1 -77 -2 -92 -32 -152 -29 -60 -82
-120 -127 -145 -16 -9 -10 -20 51 -104 37 -52 77 -107 88 -124 12 -16 40 -56
64 -87 23 -31 42 -62 42 -68 0 -6 -39 -10 -107 -10 l-108 1 -57 82 c-32 45
-86 121 -120 169 l-63 88 -57 0 -58 0 -2 -167 -3 -168 -92 -3 -93 -3 0 516 0
516 218 -3 c209 -3 219 -4 266 -28z m1746 -60 l0 -90 -170 0 -170 0 0 -95 0
-95 170 0 170 0 0 -90 0 -90 -170 0 -170 0 0 -150 0 -150 170 0 171 0 -3 -88
-3 -87 -257 -3 -258 -2 0 515 0 515 260 0 260 0 0 -90z m1386 73 c345 -116
446 -612 178 -875 -110 -108 -201 -138 -418 -138 l-136 0 0 515 0 515 163 0
c126 0 175 -4 213 -17z m-5610 -789 c50 -33 70 -119 40 -172 -35 -64 -139 -84
-195 -36 -59 49 -61 131 -6 190 29 30 38 34 84 34 31 0 62 -7 77 -16z m1531
-4 c45 -27 56 -54 51 -118 -4 -47 -10 -60 -37 -84 -56 -50 -162 -33 -196 32
-18 34 -20 92 -4 123 33 65 120 88 186 47z m1712 -5 c91 -77 42 -225 -75 -225
-56 0 -99 22 -119 60 -18 35 -19 97 -1 128 35 64 139 84 195 37z m1525 4 c101
-80 52 -229 -75 -229 -42 0 -55 5 -85 33 -62 56 -55 157 14 199 39 25 113 23
146 -3z m1695 6 c58 -30 78 -124 39 -181 -28 -41 -56 -54 -114 -54 -39 0 -51
5 -79 33 -59 59 -56 139 7 192 35 29 102 34 147 10z"/>
<path d="M4020 1176 l0 -166 73 0 c99 0 145 15 189 61 50 52 59 110 28 174
-36 74 -67 89 -187 93 l-103 4 0 -166z"/>
<path d="M7250 1004 l0 -337 58 6 c256 23 363 380 176 587 -49 54 -107 80
-177 80 l-57 0 0 -336z"/>
</g>
</svg>
